<svg data-name="グループ 3" xmlns="http://www.w3.org/2000/svg" width="47.427" height="46.099"><defs><clipPath id="a"><path data-name="長方形 62" fill="none" d="M0 0h47.427v46.099H0z"/></clipPath></defs><g data-name="グループ 1" clip-path="url(#a)"><path data-name="パス 1" d="M45.978 15.715C41.2 5.601 33.09-.137 23.695.001c-9.5.144-17.535 5.9-22.381 16.367a12.522 12.522 0 00-1.2 7.157C2 37.126 10.08 45.694 25.651 46.101c5.453.013 12.993-3.493 18.222-12.363 3.275-5.554 4.944-12.01 2.1-18.022" fill="#b10017"/><path data-name="パス 2" d="M35.726 17.68c-.84-1.027-2.271-2.79-4.1-2.611a3.835 3.835 0 00-2.212 1.063 4.079 4.079 0 00.219-2.165c-.362-1.947-2.554-2.889-3.832-3.445a5.486 5.486 0 01-1.864-1.23l.012-.013a5.465 5.465 0 01-1.911 1.145c-1.3.5-3.53 1.341-3.973 3.271a4.21 4.21 0 00.258 2.525 3.881 3.881 0 00-2.3-1.152c-1.831-.179-3.262 1.584-4.1 2.611a5.246 5.246 0 01-1.6 1.385l.014-.007a5.248 5.248 0 01.5 2.054c.091 1.323.238 3.59 1.835 4.5a3.958 3.958 0 002.8.341 7.686 7.686 0 00-1.851 2.356c-.834 1.846.53 3.208 1.195 4.42a5.707 5.707 0 01.728 2.118h-.016a4.881 4.881 0 012.121.154c1.282.341 3.476.934 4.917-.427a4.629 4.629 0 001.279-2.44 4.633 4.633 0 001.279 2.44c1.441 1.361 3.634.768 4.917.427a4.879 4.879 0 012.125-.148h-.016a5.707 5.707 0 01.728-2.118c.664-1.212 2.028-2.575 1.195-4.42a7.659 7.659 0 00-1.833-2.34 3.939 3.939 0 002.733-.356c1.6-.913 1.744-3.179 1.836-4.5a5.243 5.243 0 01.5-2.054l.014.007a5.246 5.246 0 01-1.6-1.385" fill="#fff"/><path data-name="パス 3" d="M19.522 9.549v-.1h-.06l-.293.022-.06-.022v-.127l-.172-.051v-.176h-.06v-.051h-.06v-.051h-.06l-.121.029-.172-.051v-.125h-.06v-.1l.534-.051v-.1l.586-.154V7.213l-.086-.022h.086v-.1h-.06l-.172.029-.06-.029V7.04h-.207v.051h-.06v.073h-.026v-.249l-.414-.073v-.029h-.06V6.74h-.06v-.058h-.267v.081l-.121.022v.176h-.086v-.176l-.147-.022v.073l-.147.022v-.022h-.12l-.173.022-.121-.022-.086.022v.1h-.035v-.154h-.06V6.76l-.112-.029V6.46h.172v-.256h-.06l-.086.029v.051h-.122v.044h-.026v-.044h-.086v.2h-.121v.073h-.026v-.1h-.095v.044h-.051v.051h-.06v.051l-.121.022v.1h-.086v-.022h-.06l-.181.022v-.073h-.06v-.124h.06v-.073h.121v-.227l.293-.029v-.051h.06v-.1l.293-.051v-.073l.241-.029v-.352h.112v-.061h.06v-.1l.353-.051v-.073l.121-.022V5.06h.06v-.151h.059v-.073h.06v-.073h.06v-.081l.172-.022v-.078h.06v-.4h-.121v-.2h-.06v-.05h-.052l-.181.022-.146-.022v.022h-.032v-.052h-.086v.073h-.026v-.043h-.148v.044h-.06v.132h-.035v-.176l-.147-.029v.1h-.118v.022l-.172.029v.051h-.086v-.1h-.06l-.293.051-.121-.029v-.051h-.06v-.447h.12v-.073h.06v-.029l.207-.022.112.022.181-.022.647.051V3.5l.353.029.181-.029v.051h.172l.328-.051v-.044h.06v-.381l.172-.022v-.352l.121-.029v-.22h.181v-.051h.147v.073h.06v.051l.233.022v.08h.06v.044h.121l.112-.022V2.7h.181v.051h.172v.1l.121.029v.1h.06v.051h-.06v.051l-.121.029v.044l-.233.081v.046h-.06v.322h-.026v.051h.026v.051h.06v.051h.086v-.051l.181-.029v-.1l1.206-.029v.051h.061v.1h.06v.051h.379v-.051h.06v-.176h.06V3.45h.06v-.051h.06v-.051l.293-.051v-.073l.121-.029v-.051h.06V3.1l.112-.029v-.022h.034V3.1l.233.022v.073l.242.051v.1h.052v.051h.06v.146h.06v.051h.06v.374h-.06v.114h-.06v.051h-.06v.073l-.319.029-.181-.051v-.051l-.233-.051-.121.029v-.029h-.379v.051h-.034v-.022l-.207-.051v.022h-.121v.029h-.026v-.029h-.235l-.06.029-.057-.029-.147.029v.044h-.06v.154h.06v.051h.06v.051l.233.051v.1h.06v.081h.06v.1h.112v.039l.181.022v.1h.06v.051h.06v.051l.172.051v.125l.241.022v.051h.052v.051h.06v.051l.414.073v.029l.474.044v.051h.06v.051l.353.022v.081h.061v.476h-.035v-.029h-.114l-.241.051v-.022h-.147v.051h-.06v.051h-.052v.044h-.06v.052h-.06v.2h-.06v.1h-.086v-.051h-.147v.051h-.087l-.061-.022v-.124h-.112v-.051h-.06v-.051h-.067v-.1l-.172-.022v-.073h-.095v.249l.121.022v.33l-.327.051-.06-.029v-.073h-.052v-.073h-.06l-.095.022v.073h-.026v-.044h-.121l-.172.022-.06-.022v-.029h-.207v.051h-.207l-.086-.022v.044h-.06v.081h-.035v-.029l-.207-.022v.124l-.112.022v.33h-.06v.249h.06v.654h.06v.2h-.027v.044h-.026v.132h.06v.044h-.06v.081h.06v.1h-.06v.352h-.121v.081h-.121v.073l-.112.022v.1h-.181V9.5zm-3.421-.476l-.181-.051v-.351l.121-.029v-.073h.12v-.073l.233-.029v-.044l.121-.029v-.051h.06V8.27h.146l.086.029v-.1l.121-.029v-.147h.06v-.051h.052v-.125h.06v-.1l.181-.022v-.051h.121v-.073h.052v-.139l.121-.022v-.051l.119-.022v-.073h.06v-.081h.06v-.051h.052v-.044h.121v-.029h.026v.029l.181.044v.051l.233.051v.051h.061v.051h.121v.051h.06v.1l.121.029v.271h-.06v.051h-.06v.051h-.121v.051h-.086l-.086-.022v.022h-.121v.051l-.121.022v.124h-.06v.2h-.06v.1h-.052v.081h-.034v-.1h-.06v-.056h-.052l-.095.029v.022l-.526.051v.073h-.06v.176h-.035v-.146h-.06v-.051h-.087v.073l-.121.022v.1H16.6v.278h-.026v-.073h-.146v.044zm2.835-2.564v-.044h.207l.172.022.121-.022v.044h.06l.233-.044.181.022.112-.022v.044h.061l.121-.022.172.022.121-.022.448.022v-.044h.049v-.132l.121-.022V6.26h.06v-.073h.06v-.051h.06v-.073l.465-.051v-.124l-.112-.029v-.124h-.054v-.053h-.06v-.051h-.06v-.044h-.06v-.051h-.06v-.054l-.112-.022v-.178h-.1v-.029h.035v-.125l-.121-.022V4.93h-.062v-.176h-.05v-.051h-.06v-.051h-.06v-.051h-.06v-.219h-.06v-.051h-.06v-.179h-.06v-.07h-.052v-.1h-.06v-.05h-.148v.044l-.155.029-.293-.029v-.022l-.147-.022v.044h-.06v.081l-.319.051v-.026h-.095v.051h-.112v.227h-.06v.1h-.06v.122h-.06v.073h-.121v.051l-.112.022v.054h-.06v.124h-.06v.124h-.06v.1h-.06v.052l-.112.022v.051h-.06v.1l.414.022.112-.022v.051h.095v-.051h.255l.121.022.121-.022v.051h.086v-.051l.534-.029v-.044l.112-.029v-.2l.121-.029v-.073l.207-.022.121.022v.073h.121v.081l.112.022v.055h.06v.073h.06v.505h-.147l-.207-.029v.029h-.086l-.206-.078v.051l-.8.029v-.029h-.172v-.021h-.207v.022h-.034v-.052h-.086v.081h-.06v.1h-.026v-.124h-.121v-.027h-.181l-.052.022-.06-.022v-.03h-.121l-.267.029v.051h-.06v.073h-.06v.073h-.086v-.073h-.06v-.1h-.052l-.207.051v.1h-.06v.073h-.06v.073h-.121v.05h-.121v.051h-.056v.073h-.06v.227l.586.051.181-.022v.044h.112l.3-.044zm3.421 2.534l-.353-.022v-.073h-.06v-.051h-.06v-.125l-.121-.029v-.124h-.052v-.1h-.06v-.051l-.121-.022v-.073h-.06V8.3h-.06v-.051h-.06v-.051h-.056v-.1h-.06v-.051h-.06v-.255h-.121V7.77h-.109v-.029h-.15V7.69l-.147-.022v-.051h-.06v-.051h-.052V7.42l.207-.029v.051l.465.073.181-.022.121.022.353-.022.06.022v.081l.112.022v.051h.353v.073l.121.029v.044h.06v.081h.06v.176l.173.022v.029h.06v.249h.061v.3h-.061v.249h-.026v-.022l-.147-.029v.081h-.06v.073h-.095l-.086-.029v.051z" fill="#fff"/><path data-name="パス 4" d="M30.635 9.513v-.051l-.241-.029V9.36h-.06v-.052h-.112v-.051h-.06v-.1h-.063v-.051l-.233-.029v-.044l-.241-.029v-.051l-.233-.051v-.044h-.06v-.051h-.147v.022h-.034v-.051l-.112-.022v-.073l-.121-.029V8.53l-.172-.051v-.125h-.181v-.022l-.5-.051v.051l-.181.022v.051h-.147v-.051h-.147v.176l-.327.022v-.1h-.086v.073l-.121.022v.051h-.086l-.086-.022v.051l-.413.073v.051l-.414.051v.051h-.058v.044h-.293v.051h-.06v.051a3.526 3.526 0 01-.413.077 3.6 3.6 0 01-.44.026l-.06-.029v-.065h-.06v-.1h-.06v-.044l-.121-.029V8.71h-.06v-.1l-.173-.051v-.3h.06v-.073l.207-.022.147.022v-.1h.086v.081h.06v.044h.06v.132h.44v-.081h.06v-.22h.06v-.051h.06v-.08h-.06v-.124h-.06v-.3h-.06V7.34h.06v-.176h-.026v-.029h.026v-.087h-.06v-.15h.06v-.176h-.06v-.044h.035v-.051h-.035v-.2h.06v-.129h-.06v-.176h-.061v-.074h-.051V4.371h-.06V4.32h.06v-.172h-.06v-.124h.06v-.505h.051v-.022h.035v.044h.061l.293-.022v.051h.121v.022l.172.029v.051h.059v.044h.06v.051h.06v.081l.173.022v.022h.06v.051h.147V3.87l.293-.051v-.051h.06v-.147h.06v-.154h.034v-.051h-.034v-.048h-.06v-.132h-.06v-.549h.06v-.073h.181v-.029h.026v.051h.06l.086-.022v-.051h.06v-.029h.034v.029h.353v.022l.293.029v.051h.06v.176l.121.022v.1h.052v.176h-.052v.051h-.06v.073h-.06v.073h-.06v.579h.8v-.051h.052v-.196h.061v-.1l.327-.051.233.022v.029h.06v.051l.181.022v.029h.06v.044l.233.051v.051l.121.029v.073h.052v.051h.06v.373h-.06v.154h-.052v.044h-.06v.132h-.06V5.5h.06v.1h-.06v.278h.06v.07l.353.124v.076h.061v.051h.06v.073h.233v.076l.121.022v.051h.061v.051h.112v.051h.06v.154h.06v.176h-.06v.044h-.06v.051l-.353.081v.073l-.413.051v.044h-.061v.051h-.026v-.02h-.181l-.112.022v-.051h-.095v.1h-.052v.1h-.181v.051h-.06v.051h-.06v.1h-.147l-.086-.022v.146h.06v.051h.06v.051h.052V7.9h.06v.048l.121.029v.051h.06v.044h.06l.172-.022.121.022v.051l.328.051v-.051h.086l.121.051v.051h.052v.051h.061l.3-.029.233.029v.051h.06v.044l.379.051v-.044h.095v.051h.258v-.1h.034v.1h.06v.1h.06v.278h-.06v.073h.026v.022h-.026v.081l-.267.022v-.022h-.055l-.181.051-.172-.029-.207.029v.124h-.06v.044h-.12v.1h-.06v.051h-.061v.051l-.121.022v.051zm-1.947-4.541v-.051l.112-.029v-.044h.061v-.505l-.172-.022v-.029l-.388-.051v.051h-.086l-.146-.051v.051h-.147v-.051h-.095v.081h-.086v-.029h-.06l-.112.029v-.051h-.06l-.181.022v-.051h-.267v.051h-.147v-.051h-.06v-.044l-.293-.051-.147.022v.051l-.181.022v.1h-.052v.051h-.06v.055h-.06v.249l.233.022V4.8l.267.022v-.074h.086v.051h.121v.073h.086v-.073h.095v.022h.05v.051h.095v-.024h.112v-.051l.155-.029.207.051v-.051h.086v.051l.233.029.121-.029.414.051v.051zm.06 1v-.051h.052v-.1h.061v-.573h-.086v.029h-.086l-.621-.051v.051h-.328v-.029h-.147v.051h-.086l-.388-.1v.049l-.207.029-.646-.051-.086.022v.476h.052l.181-.022v.1h.06l.086-.029v-.025h.086v.051h.095V5.77h.026v.051h.086v-.073h.095v.051h.233l.293-.029.474.1v.051h.06v.051l.414.022zM26.913 8.03v-.051l.353-.029v-.1h.06v-.022l.241-.051v-.051h.052v-.078h.095v.051h.052l.095-.022v-.1h-.06v-.154h-.06v-.175h-.06v-.147l-.112-.029v-.044h-.121v-.051h-.06v-.079h-.06v-.044h-.06v-.4h-.06v-.1h-.146v.051h-.086a1.08 1.08 0 00-.353-.051h-.388v.073h-.052v.608h.026v.013h-.026v.7h.052v.073h.061v.051h.06v.051h.06v.051l.233.022v.029zm1.887-.754v-.1h.061v-.051h.06v-.15h.06v-.047h.06v-.051h.06v-.051h.353v-.051l.112-.022v-.3l-.414-.1-.233.022-.146-.022v.051h-.086v-.056h-.06l-.181.051-.06-.029v-.022h-.087v.051h-.147V6.37h-.06l-.267.029v.049h-.06v.124h.06v.051l.121.022v.073h.06v.051h-.06v.1h.06v.1h.06v.051l.172.044v.051l.181.029v.073h.06v.051l.233.022z" fill="#fff"/><path data-name="パス 5" d="M17.825 22.825v-.073h-.215v-.063h-.107v-.507h-.107v-.074h-.092v-.326h.092v-.105h-.092v-.19h.368v.147h.092v.218h2.313l1.21-.074v-.863h.107v-.074l.306-.042v-1.438h.107v-1.116l-.261-.031v.031H21.5v-.073h-.429l-.2.042v-.042h-.368v.074h-.061v-.031h-.52v-.043l-.261-.032v.074H19.6v-.042h-.107v-.063l-.307-.074v-.183h-.107v-.116h-.107v-.384l1.425-.074.153.032v-.032h.261l.214.032v.074l.628.031.153-.031v-.074l.214-.032v-.296h.113v-.358h.2v-.105h.1v-.074h.107l.137-1.295h-.464v-.042h-.191l-.089.044-.232-.042v.074l-.273.042v.063l-.287.042v.031h-.04v-.074h-.1v-.106l-.56-.032-.328.032v.148h-.1v.074h-.05v-.042h-.082l-.56.074v-.074l-.191-.031v-.179h-.286v-.116h-.1v-.211h.055v-.073h-.055v-.105h.1v-.105l.805-.074.178.032.751-.074.191.042.273-.042.191.042v.074h.1v.137l1.4.073.464-.074.178.042.751-.074 1.734.074v-.074h.1v-.221l.369-.032v-.1h.1v-.074h.287v-.147l.328-.074.369.042.286-.042.273.074v.147l.191.032v.101h.191v.073h.082v.074h.191v.147l.191.032v.61h-.1v.074h-.1v.116l-.191.032v.105h-.137v-.074h-.232v.042h-.232v-.105h-.1v-.226h-.137v.032l-.614.042v-.105h-.1l-.136.032v.032h-.041v-.033h-.191l-.465.074v-.074h-.1l-.382.105-.178-.031-.191.031v-.105h-.327v.074h-.031v-.042h-.15v.116h-.082v.137h-.1v.074h-.1v.073h-.1l.063.221-.214.031v.148h-.107v.179l-.2.031v.179h-.09v.116h.107v.074h-.107v.432h.107v.357l.567.074v-.074h.106v-.07h.95v-.074l.368-.074v.074h.26v-.074l.889-.032.429.032v.118l.2.032v.068h.104v.074h.107v.074l.214.031v.074h.107v.147h.092v.21h-.092v.148h-.107v.074h-.107v.074h-.107v.105l-.215.031v.116l-.2.032v.21h.092v.221h-.084v.579h-.11v.074h-.107v.21l-.214.042v.684h-.107v.29h-.092v.295h.046v.063h.046v.142h-.092v.105h.092v.252h.107v.074h.214l.581-.031v-.07l.2-.042v-.179h.107v-.074h.107v-.105l.215-.031v-.074h.107v-.074h.368l.827.148v.074h.105v.179l.214.031v.105h.107v.112h.107v.863h-.107v.105h-.169v-.068h-.152v.042h-.153l-.322-.042v-.063l-.261-.042v.042h-.153v-.074h-.151v.074l-.261.031-.643-.031-.092.031-.107-.031v-.042h-.321l-.935.074-.276-.031v.062h-.674l-.261-.032v.032h-.153l-.429-.063-.307.031-.321-.031-.414.063-.429-.063-.154.031v.032h-.046v-.032l-.275-.031v.063h-.562l-.169-.032v.074h-.046v-.042l-.26-.032v.032h-.26l-.368-.032v.074h-.061v-.074h-.367v.074h-.046v-.042l-.322-.032-.46.032v.074h-.168v-.074h-.107l-.2.042-.266-.042v.042h-.061v-.042h-.2l-.536.042-.367-.042v.074zm7.552-1.084v-.179h.107v-.11h-.107v-.07h.046v-.074h-.046V19.33h.107v-.478h.107v-.28h-.107v-.074h.107v-.105h-.107v-.221l-.368-.032v.074h-.261l-.214-.042v-.063h-.108a.878.878 0 01-.337.063h-.337v.116l-.536.074v1.579h-.09v.505h-.061v.074h.061v.074h-.107v.253h-.107v.863a4.716 4.716 0 001.072.09q.551-.016 1.134-.016z" fill="#b10017"/><path data-name="パス 6" d="M24.519 32.689v-.105h-.107v-.832h.107v-.177h.107v-.189h-.107v-.284h-.046v-.031h.046v-.147h-.414l-.168.032v.116l-.2.031v.221h-.107v.1h-.107v.105a3.638 3.638 0 01-.421.058 1.681 1.681 0 00-.421.09v.074l-.2.032v.074h-.107v.105h-.107v.074h-.107v.074l-.368.032-.414-.032-1 .105v.074l-.215.042v.137h-.107v.074h-.107v.105l-.674.116-.215-.074v-.074l-.215-.032v-.074h-.107v-.326h-.092v-.179h.092v-2.779h.107v-.074l.215-.031v-.145h.107v-.105h-.107v-.474h.107v-.105h-.107v-.726h-.362v.074h-.107v.074h-.107v.147h-.107v.148h-.092v.137h-.107v.295h-.107v.135h-.107v.221h-.107v.105l-.215.042v.063h-.2v.074h-.368v-.074l-.215-.032v-.968h.107v-.074l.215-.042v-.074h.092v-.141h.107v-.147h.107v-.074l.215-.032v-.074h.107v-.253h.107v-.147h.092v-.432h.107v-.074h.107v-.105h.107v-.105h.107v-.116h.107v-.105h.107v-.179h.092V25.4h.107v-.325l.215-.032v-.147h.046v-.074h-.046v-.105h.107v-.284h.107v-.074h.092v-.074h.107v-.295h.107v-.642h.114v-.073h.1v-.074l.582-.031.735.179v.074l.521.105v.074h.107v.611l-.215.031v.074h-.107v.074h-.107v.074h-.107v.147h-.089v.063h-.107v.074l-.322.074v.431h-.107v.074h-.107v.074h-.092v.284h-.107v.189h.107v.105h-.107v.105h.107v.537h-.107v.116h.107v.284h-.107v.1h.107v.874h-.061v.063h.061v.442h-.061v.073h.061v1.811h-.061v.063h.061v1.126h.092v.063h.8v-.063h.107v-.074h.2v-.147h.107v-.179h-.107v-.074h-.107v-.147h-.097v-2.232h-.107v-.147h.107v-.432h-.107v-.074h.107v-.284h-.107v-.4h.107v-1.474h-.061v-.036h.061v-.579l.567-.042.107.042v.074h.107v.211h.107v.074h.889v-.074h.107v-.463h-.064v-.043h.061v-.611h.107v-.074h.107v-.284h-.107v-.116h.107v-.179h-.107v-.136h.107v-.474l1-.031.2.031v.074l.536.032v.147h.089v.832h.107v.105l.735.042.536-.042.2.042.888-.116v-.358h.107v-.179l.9-.042.092.042v.074l.215.031v.074h.107v.147h.113v.105h.107v.074h.2v.074h.107v.074h.107v.105h.107v.074h-.107v.105h-.107v.074l-.521.105v.074h-.107v.105l-.521.105v.147h-.107v.074h-.322v.074h-.092v.431h-.107v.074h-.537v.137h-.092v.147h-.108v.148h.107v.147l.306.032v.074h.107v.147l1.149.032v.074l1.364.074v.074l.536.137v.148h-.107v.105h-.107v.074h-.107v.105h-.107v.074h-.107v.074h-.092v.221h-.107v.063a3.475 3.475 0 00-.4.021 3.52 3.52 0 00-.337.053v.074h-.107v.147h-.107v.148h.107v.747l-.628.116v.031h-.153l-.11-.029v-.074h-.169v.074h-.092v.105l-1.164.074v.179l.2.02v.147l.2.032v.074l.536.074v.074h.107v.179h.092v.074a3.138 3.138 0 01.613.121c.194.06.17.114.343.163v.074l.8.105v.074h.107v.074h.107v.105h.107v.074h.113v.326l-.521.147v.137h-.107v.147h-.172v-.079h-.23v.074l-.726.074v.105h-.107v-.074h-.046v-.074l-.322-.031-.215.031v-.063h-.104v-.221h-.092v-.105l-.429-.074v-.074h-.107v-.068h-.107v-.074h-.092v-.481h-.107v-.089l-.2.012-.153.032v1.442h-.107v.147l-.414.032v.074h-.107v.116h-.107v.063l-1.042.221zm-1.363-1.874v-.074h.107v-.505h.107v-.074h.107v-.401h.092v-.063h.107v-.295h-.107v-.105l-.628-.042-.261.074v.074h-.107v.579h.061v.031h-.061v.148h-.092v.074h-.107v.148h-.107v.431l.628.032zm.215-3.031v-.109h.107v-.147h.092v-.074l.322-.074v-.074h.106v-.063h.107v-.116l.414-.1v-.074h.107v-.078h.107v-.137h.107v-.148h-.107v-.105h-.107v-.221h-.107v-.074h-.107v-.179h-.107v-.105h-.092v-.074h-.215v-.074h-.107l-.153.042v.105h-.107v.074h-.107v.074h-.107v.063l-.215.042v.074l-.2.032v.105h-.104v.074l-.215.042v.179h-.107v.358h.107v.179h-.107v.547h.107v.105h.429zm1.149 1.01v-.105h.107v-.179l.215-.042v-.21h-.107v-.074h-.107v-.148l-.582-.031v.063a3.833 3.833 0 00-.7.148q-.337.105-.659.179v.4l1.363.074zm1.47-2.99V24.72l-.413-.042v-.063h-.215l-.322.063-.153-.032v.074h-.107v.758l.429.105v.074h.089v.105h.107v.074l.322.042zm1.042 3.021v-.074l.322-.063v-.148l.413-.074v-.074h.107v-.358h-.107v-.147l-.413-.032-.107.032-.735-.032v-.105h-.114v-.075h-.092v-.116h-.107v-.063h-.101v-.147h-.107v-.074h-.368v.221h.107v.063h.107v.116h.107v.105h.092v.105h.107v.074h.107v.147h.107v.579h.107v.105z" fill="#b10017"/><path data-name="パス 7" d="M16.013 20.934a1.052 1.052 0 00-.717-1.272c-1.272-.437-3.257-.473-3.374-.134s1.472 1.532 2.744 1.968a1.052 1.052 0 001.347-.563" fill="#b10017"/><path data-name="パス 8" d="M31.773 20.871a1.052 1.052 0 001.352.552c1.268-.448 2.847-1.652 2.727-1.991s-2.1-.286-3.373.161a1.052 1.052 0 00-.706 1.278" fill="#b10017"/><path data-name="パス 9" d="M23.788 14.135a.941.941 0 00.984-.87c.017-1.091-.569-2.634-.929-2.64s-.994 1.518-1.011 2.609a.941.941 0 00.956.9" fill="#b10017"/><path data-name="パス 10" d="M17.884 32.127c-.434-.377-.934-.4-1.128-.181-.487.56-.71 1.748-.438 1.984s1.416-.151 1.9-.712c.194-.223.1-.714-.337-1.091" fill="#b10017"/><path data-name="パス 11" d="M30.017 32.116c-.439.37-.544.86-.354 1.086.478.568 1.618.972 1.892.741s.07-1.423-.408-1.991c-.19-.226-.69-.206-1.13.164" fill="#b10017"/><path data-name="パス 12" d="M14.596 11.195a11.2 11.2 0 00.3-2.929c-.083-.678 0-2.2-.016-2.35s-.193-.157-.537.019a14.406 14.406 0 00-2.679 1.606 9.594 9.594 0 00-2.206 2.171 6.048 6.048 0 00-.653 2.79c-.029 1.1.549 1.781.726 2.668.058.291.1.514.178 1.016s.408.354.614.217.5-.46 1.721-1.4a8.316 8.316 0 002.553-3.813m-.746-1.2a17.22 17.22 0 01-1.648 1.488c-.368.245-.776.5-.9.6a2.147 2.147 0 00-.423.71 12.857 12.857 0 00-.425 2.093 6.523 6.523 0 01-.056.688c-.027.178.034.36-.124.359s-.338 0-.26-.372a15.217 15.217 0 00.183-1.564 7.247 7.247 0 00-.205-1.294 6.812 6.812 0 01-.077-1.871c.124-.815.281-1.27.332-1.061s-.132.686-.092 1.488a5.678 5.678 0 00.3 1.631 13.614 13.614 0 00.977-2.31c.123-.406.231-1.228.339-1.64s.586-1.383.493-.964-.416 1.4-.4 1.567.019.354.019.354.94-1.538 1.29-2.089.793-1.063.966-1.308.26-.241.045.176-.774 1.212-.921 1.483-.274.534-.274.534.778-.409 1.05-.582.547-.251.332-.039a14.292 14.292 0 01-1.247.943 2.775 2.775 0 00-.623.471 10.911 10.911 0 00-.83 1.426c-.1.276-.226.4-.188.49s.219.183 1.022-.5 1.107-1 1.384-1.186.285-.058-.044.281" fill="#fff"/><path data-name="パス 13" d="M13.044 34.695a19.578 19.578 0 00-4.176-1.03c-.961-.047-3.129-.5-3.34-.506s-.215.208.047.68a23 23 0 002.385 3.73c.931 1 1.881 2.475 3.171 3.261a11 11 0 003.992 1.447c1.572.285 2.511-.291 3.765-.316.412-.008.727-.017 1.437 0 .325.009.454-.081.48-.209-1.259-.34-3.144-.774-3.613-.9a11.122 11.122 0 00-1.832-.031 11.12 11.12 0 01-2.657-.323c-1.163-.338-1.816-.638-1.521-.656s.98.319 2.12.449a8.513 8.513 0 002.308-.013 25.5 25.5 0 00-3.32-1.747c-.582-.246-1.754-.566-2.345-.794s-1.989-1.047-1.39-.837 2.012.838 2.244.857.5.055.5.055-2.22-1.528-3.02-2.091-1.542-1.236-1.9-1.509-.352-.381.248-.017 1.753 1.245 2.144 1.491.77.464.77.464-.611-1.071-.867-1.452-.377-.744-.068-.426 1.217 1.525 1.388 1.779a4.68 4.68 0 00.694.889 20.553 20.553 0 002.058 1.364c.4.182.572.373.7.346s.252-.235-.748-1.4-1.463-1.616-1.739-2.007-.093-.372.4.118a30.261 30.261 0 012.178 2.406c.362.517.746 1.089.882 1.262a4.016 4.016 0 001.025.691 23.387 23.387 0 002.992 1c.534.117 1.451.344 2.172.527l-.01-.015c-.2-.29-.673-.726-2.049-2.478a15.47 15.47 0 00-5.517-4.067" fill="#fff"/><path data-name="パス 14" d="M2.079 21.729c.322.061.862.165 1.46.3a7.9 7.9 0 01-.456-2.2c-.036-1.1.049-1.752.157-1.5s0 .939.225 1.967a8.639 8.639 0 00.638 1.865l.15.039a32.411 32.411 0 00.579-3.242c.055-.572 0-1.678.034-2.253s.386-2.007.37-1.429-.179 1.974-.126 2.181.1.453.1.453.772-2.336 1.064-3.176.7-1.665.855-2.045.255-.406.093.212-.648 1.852-.762 2.257-.205.792-.205.792.833-.809 1.118-1.131.593-.521.386-.169-1.08 1.456-1.27 1.671a4.129 4.129 0 00-.635.835 17.065 17.065 0 00-.667 2.15c-.052.393-.179.6-.113.7s.3.16 1.1-1.013 1.091-1.694 1.379-2.036.326-.177.01.381a26.211 26.211 0 01-1.624 2.523c-.382.449-.809.932-.932 1.1a3.344 3.344 0 00-.343 1.074 5.088 5.088 0 00-.024.275 7.876 7.876 0 011.314.483c.295.15.636.293 1 .444l.3.126a12.965 12.965 0 001.468-4.731 16.3 16.3 0 00-.303-3.91c-.251-.852-.491-2.862-.547-3.049s-.265-.135-.634.216a20.8 20.8 0 00-2.824 3.044c-.666 1.071-1.782 2.281-2.134 3.61a8.632 8.632 0 00-.233 3.179l.032.006" fill="#fff"/><path data-name="パス 15" d="M7.453 32.335c1.864.724 2.334 1.018 2.642 1.115s.784.166.729-.458-.061-.906-.073-1.273c-.035-1.12.51-2.115.142-3.427a7.01 7.01 0 00-1.678-3.13c-.869-.921-2.429-1.345-3.5-1.888a19.6 19.6 0 00-3.942-1.058c-.5-.1-.72-.034-.7.151s.587 1.979.687 2.817a12.844 12.844 0 001.259 3.41 10.233 10.233 0 004.439 3.74M3.48 26.601c.414.134.9.416 2.143.973s1.449.393 1.47.268-.183-.227-.389-.526a13.253 13.253 0 00-1.5-1.439 3.694 3.694 0 00-.944-.363 18.961 18.961 0 01-1.894-.73c-.341-.184.037-.18.44-.061s1.532.358 1.532.358-.242-.274-.513-.551-1.232-1.046-1.634-1.475-.291-.462.006-.225 1.023.708 1.64 1.254 2.292 2.084 2.292 2.084-.051-.23-.081-.429-.745-1.275-.988-1.747.664.536.926.995.647 1.407.928 1.854a16.141 16.141 0 001.953 2.449 6.556 6.556 0 00-.1-2.05c-.188-.973-.567-1.485-.563-1.752s.343.227.747 1.163a7.794 7.794 0 01.46 2.264c.1.572-.077 1.134.121 1.615a17.479 17.479 0 00.7 1.814c.213.427-.02.477-.225.53s-.181-.184-.268-.389a7.431 7.431 0 01-.278-.805 14.87 14.87 0 00-1.174-2.368 2.614 2.614 0 00-.759-.713c-.184-.072-.789-.251-1.337-.425a22.484 22.484 0 01-2.574-1.25c-.527-.3-.555-.456-.141-.322" fill="#fff"/><path data-name="パス 16" d="M35.378 15.008c1.226.935 1.515 1.259 1.721 1.4s.541.285.614-.217.12-.725.178-1.016c.178-.887.756-1.563.726-2.668a6.045 6.045 0 00-.653-2.79 9.593 9.593 0 00-2.205-2.171 14.421 14.421 0 00-2.678-1.606c-.344-.176-.518-.168-.537-.019s.067 1.671-.016 2.35a11.215 11.215 0 00.3 2.929 8.316 8.316 0 002.553 3.813m-1.852-5.29c.277.187.581.5 1.384 1.186s.984.593 1.022.5-.092-.214-.188-.49a10.913 10.913 0 00-.83-1.426 2.782 2.782 0 00-.623-.471 14.324 14.324 0 01-1.246-.943c-.215-.212.06-.134.332.039s1.05.582 1.05.582-.127-.263-.274-.534-.706-1.067-.921-1.483-.128-.42.045-.176.616.757.966 1.308 1.29 2.089 1.29 2.089 0-.191.019-.354-.31-1.148-.4-1.567.386.552.494.964.215 1.234.339 1.64a13.555 13.555 0 00.978 2.31 5.7 5.7 0 00.3-1.631c.04-.8-.143-1.279-.092-1.488s.209.246.332 1.061a6.8 6.8 0 01-.076 1.871 7.249 7.249 0 00-.206 1.294 15.277 15.277 0 00.183 1.564c.078.377-.1.371-.26.372s-.1-.181-.124-.359a6.44 6.44 0 01-.056-.688 12.878 12.878 0 00-.425-2.093 2.135 2.135 0 00-.423-.71c-.121-.093-.529-.352-.9-.6a17.281 17.281 0 01-1.648-1.488c-.329-.339-.321-.468-.044-.281" fill="#fff"/><path data-name="パス 17" d="M34.377 34.695a19.578 19.578 0 014.176-1.03c.961-.047 3.129-.5 3.341-.506s.215.208-.047.68a23 23 0 01-2.385 3.73c-.931 1-1.881 2.475-3.171 3.261a11 11 0 01-3.992 1.447c-1.572.285-2.511-.291-3.765-.316-.412-.008-.727-.017-1.437 0-.325.009-.454-.081-.48-.209 1.259-.34 3.144-.774 3.613-.9a11.121 11.121 0 011.832-.031 11.12 11.12 0 002.657-.323c1.163-.338 1.816-.638 1.521-.656s-.98.319-2.12.449a8.513 8.513 0 01-2.308-.013 25.5 25.5 0 013.32-1.747c.582-.246 1.754-.566 2.345-.794s1.989-1.047 1.39-.837-2.012.838-2.244.857-.5.055-.5.055 2.223-1.527 3.019-2.091 1.542-1.236 1.9-1.509.352-.381-.248-.017-1.753 1.245-2.144 1.491-.77.464-.77.464.61-1.071.867-1.452.377-.744.068-.426-1.217 1.525-1.388 1.779a4.679 4.679 0 01-.694.889 20.548 20.548 0 01-2.058 1.364c-.4.182-.572.373-.7.346s-.252-.235.748-1.4 1.463-1.616 1.739-2.007.093-.372-.4.118a30.262 30.262 0 00-2.178 2.406c-.362.517-.746 1.089-.882 1.262a4.016 4.016 0 01-1.025.691 23.388 23.388 0 01-2.992 1c-.534.117-1.451.344-2.172.527l.01-.015c.2-.29.673-.726 2.049-2.478a15.47 15.47 0 015.517-4.067" fill="#fff"/><path data-name="パス 18" d="M45.342 21.729c-.322.061-.862.165-1.46.3a7.9 7.9 0 00.456-2.2c.036-1.1-.049-1.752-.157-1.5s0 .939-.226 1.967a8.64 8.64 0 01-.638 1.865l-.15.039a32.341 32.341 0 01-.58-3.242c-.055-.572 0-1.678-.034-2.253s-.386-2.007-.37-1.429.179 1.974.126 2.181-.1.453-.1.453-.772-2.336-1.064-3.176-.7-1.665-.855-2.045-.255-.406-.093.212.648 1.852.762 2.257.205.792.205.792-.833-.809-1.118-1.131-.594-.521-.386-.169 1.08 1.456 1.27 1.671a4.121 4.121 0 01.635.835 17.025 17.025 0 01.667 2.15c.052.393.179.6.113.7s-.3.16-1.1-1.013-1.091-1.694-1.379-2.036-.326-.177-.01.381a26.208 26.208 0 001.624 2.523c.382.449.809.932.932 1.1a3.333 3.333 0 01.343 1.074c.007.056.016.152.024.275a7.876 7.876 0 00-1.314.483c-.295.15-.636.293-1 .444l-.3.126a12.965 12.965 0 01-1.468-4.731 16.3 16.3 0 01.305-3.913c.251-.852.491-2.862.547-3.049s.265-.135.634.216a20.8 20.8 0 012.824 3.044c.666 1.071 1.782 2.281 2.134 3.61a8.632 8.632 0 01.233 3.179l-.032.006" fill="#fff"/><path data-name="パス 19" d="M44.407 28.595a12.854 12.854 0 001.259-3.41c.1-.839.66-2.633.68-2.818s-.2-.25-.7-.151a19.611 19.611 0 00-3.942 1.058c-1.07.543-2.631.967-3.5 1.888a7.01 7.01 0 00-1.678 3.129c-.368 1.313.178 2.308.142 3.427-.012.367-.019.649-.073 1.273s.422.555.729.458.778-.391 2.642-1.115a10.233 10.233 0 004.439-3.74m-.607-1.672a22.474 22.474 0 01-2.574 1.25c-.549.174-1.154.353-1.337.425a2.613 2.613 0 00-.758.713 14.879 14.879 0 00-1.172 2.373 7.359 7.359 0 01-.278.805c-.087.2-.063.442-.268.389s-.438-.1-.225-.53a17.537 17.537 0 00.7-1.814c.2-.482.022-1.044.121-1.615a7.789 7.789 0 01.46-2.264c.4-.936.743-1.429.747-1.163s-.375.779-.563 1.752a6.559 6.559 0 00-.1 2.05 16.14 16.14 0 001.953-2.449c.281-.446.665-1.395.928-1.854s1.17-1.466.926-1-.957 1.547-.988 1.746-.081.429-.081.429 1.675-1.538 2.291-2.084 1.343-1.017 1.64-1.254.408-.2.006.225-1.362 1.2-1.633 1.478-.513.551-.513.551 1.128-.238 1.532-.357.781-.124.44.06a18.957 18.957 0 01-1.893.727 3.693 3.693 0 00-.946.363 13.312 13.312 0 00-1.5 1.439c-.206.3-.41.4-.389.526s.229.29 1.47-.268 1.729-.839 2.143-.973.386.023-.141.322" fill="#fff"/><path data-name="パス 20" d="M26.096 40.365a2.4 2.4 0 11-2.4-2.4 2.4 2.4 0 012.4 2.4" fill="#fff"/></g></svg>