<svg id="グループ_19" data-name="グループ 19" xmlns="http://www.w3.org/2000/svg" width="17.039" height="17.039" viewBox="0 0 17.039 17.039">
  <path id="パス_33" data-name="パス 33" d="M0,0H17.039V17.039H0Z" fill="none"/>
  <path id="パス_34" data-name="パス 34" d="M12.649,2.42h2.84a.71.71,0,0,1,.71.71V14.489a.71.71,0,0,1-.71.71H2.71a.71.71,0,0,1-.71-.71V3.13a.71.71,0,0,1,.71-.71H5.55V1H6.97V2.42h4.26V1h1.42ZM3.42,6.68v7.1H14.779V6.68ZM4.84,8.1H6.26V9.52H4.84Zm3.55,0H9.81V9.52H8.39Zm3.55,0h1.42V9.52h-1.42Z" transform="translate(-0.58 -0.29)" fill="#fff"/>
</svg>
