<svg id="グループ_3" data-name="グループ 3" xmlns="http://www.w3.org/2000/svg" xmlns:xlink="http://www.w3.org/1999/xlink" width="47.427" height="46.099" viewBox="0 0 47.427 46.099">
  <defs>
    <clipPath id="clip-path">
      <rect id="長方形_62" data-name="長方形 62" width="47.427" height="46.099" fill="none"/>
    </clipPath>
  </defs>
  <g id="グループ_1" data-name="グループ 1" clip-path="url(#clip-path)">
    <path id="パス_1" data-name="パス 1" d="M45.978,15.714C41.2,5.6,33.09-.138,23.695,0,14.195.144,6.16,5.9,1.314,16.367a12.522,12.522,0,0,0-1.2,7.157C2,37.125,10.08,45.693,25.651,46.1c5.453.013,12.993-3.493,18.222-12.363,3.275-5.554,4.944-12.01,2.1-18.022" transform="translate(0 0.001)" fill="#b10017"/>
    <path id="パス_2" data-name="パス 2" d="M69.76,48.288c-.84-1.027-2.271-2.79-4.1-2.611a3.835,3.835,0,0,0-2.212,1.063,4.079,4.079,0,0,0,.219-2.165c-.362-1.947-2.554-2.889-3.832-3.445A5.486,5.486,0,0,1,57.971,39.9l.012-.013a5.465,5.465,0,0,1-1.911,1.145c-1.3.5-3.53,1.341-3.973,3.271a4.21,4.21,0,0,0,.258,2.525,3.881,3.881,0,0,0-2.3-1.152c-1.831-.179-3.262,1.584-4.1,2.611a5.246,5.246,0,0,1-1.6,1.385l.014-.007a5.248,5.248,0,0,1,.5,2.054c.091,1.323.238,3.59,1.835,4.5a3.958,3.958,0,0,0,2.8.341,7.686,7.686,0,0,0-1.851,2.356c-.834,1.846.53,3.208,1.195,4.42a5.707,5.707,0,0,1,.728,2.118l-.016,0a4.881,4.881,0,0,1,2.121.154c1.282.341,3.476.934,4.917-.427a4.629,4.629,0,0,0,1.279-2.44,4.633,4.633,0,0,0,1.279,2.44c1.441,1.361,3.634.768,4.917.427A4.879,4.879,0,0,1,66.2,65.46l-.016,0a5.707,5.707,0,0,1,.728-2.118c.664-1.212,2.028-2.575,1.195-4.42a7.659,7.659,0,0,0-1.833-2.34,3.939,3.939,0,0,0,2.733-.356c1.6-.913,1.744-3.179,1.836-4.5a5.243,5.243,0,0,1,.5-2.054l.014.007a5.246,5.246,0,0,1-1.6-1.385" transform="translate(-34.034 -30.608)" fill="#fff"/>
    <path id="パス_3" data-name="パス 3" d="M71.828,17.467v-.1h-.06l-.293.022-.06-.022V17.24l-.172-.051v-.176h-.06v-.051h-.06v-.051h-.06l-.121.029-.172-.051v-.125h-.06v-.1l.534-.051v-.1l.586-.154V15.131l-.086-.022h.086v-.1h-.06l-.172.029-.06-.029v-.051h-.207v.051h-.06v.073h-.026v-.249l-.414-.073v-.029h-.06v-.073h-.06V14.6h-.267v.081l-.121.022v.176h-.086v-.176l-.147-.022v.073l-.147.022v-.022h-.12l-.173.022-.121-.022-.086.022v.1h-.035v-.154h-.06v-.044l-.112-.029v-.271h.172v-.256h-.06l-.086.029v.051H69.14v.044h-.026v-.044h-.086v.2h-.121v.073h-.026v-.1h-.095v.044h-.051v.051h-.06v.051l-.121.022v.1h-.086v-.022h-.06l-.181.022v-.073h-.06v-.124h.06v-.073h.121v-.227l.293-.029v-.051h.06v-.1l.293-.051v-.073l.241-.029v-.352h.112V13.4h.06v-.1l.353-.051v-.073l.121-.022v-.176h.06v-.1h0v-.051H70v-.073h.06v-.073h.06V12.6l.172-.022V12.5h.06v-.4h-.121v-.2h-.06V11.85h-.052l-.181.022-.146-.022v.022H69.76V11.82h-.086v.073h-.026V11.85H69.5v.044h-.06v.132h-.035V11.85l-.147-.029v.1H69.14v.022l-.172.029v.051h-.086v-.1h-.06l-.293.051-.121-.029v-.051h-.06v-.447h.12v-.073h.06v-.029l.207-.022.112.022.181-.022.647.051v.044l.353.029.181-.029v.051h.172l.328-.051v-.044h.06v-.381l.172-.022v-.352l.121-.029v-.22h.181v-.051h.147v.073h.06v.051l.233.022v.08h.06v.044h.121l.112-.022v.051h.181v.051h.172v.1l.121.029v.1h.06v.051h-.06v.051l-.121.029v.044l-.233.081V11.2h-.06v.322h-.026v.051h.026v.051h.06v.051h.086v-.051l.181-.029v-.1l1.206-.029v.051h.061v.1h.06v.051h.379v-.051h.06v-.176h.06v-.073h.06v-.051h.06v-.051l.293-.051v-.073l.121-.029v-.051h.06v-.044l.112-.029v-.022h.034v.051l.233.022v.073l.242.051v.1h.052v.051h.06v.146h.06v.051h.06v.374h-.06V12h-.06v.051h-.06v.073l-.319.029-.181-.051v-.051L74.723,12l-.121.029V12h-.379v.051h-.034v-.022l-.207-.051V12h-.121v.029h-.026V12H73.6l-.06.029L73.483,12l-.147.029v.044h-.06v.154h.06v.051h.06v.051l.233.051v.1h.06v.081h.06v.1h.112V12.7l.181.022v.1h.06v.051h.06v.051l.172.051V13.1l.241.022v.051h.052v.051h.06v.051l.414.073v.029l.474.044v.051h.06v.051l.353.022v.081h.061v.476h-.035v-.029H75.9l-.241.051v-.022h-.147v.051h-.06v.051H75.4v.044h-.06V14.3h-.06v.2h-.06v.1h-.086v-.051h-.147V14.6H74.9l-.061-.022v-.124h-.112v-.051h-.06v-.051H74.6v-.1l-.172-.022v-.073h-.095v.249l.121.022v.33l-.327.051-.06-.029v-.073h-.052v-.073h-.06l-.095.022v.073h-.026v-.044h-.121l-.172.022-.06-.022v-.029h-.207v.051h-.207l-.086-.022v.044h-.06v.081h-.035v-.029l-.207-.022v.124l-.112.022v.33h-.06v.249h.06v.454h0v.2h.06v.2H72.6v.044h-.026v.132h.06v.044h-.06v.081h.06v.1h-.06v.352h-.121v.081h-.121v.073l-.112.022v.1h-.181v.051Zm-3.421-.476-.181-.051v-.073h0v-.278l.121-.029v-.073h.12v-.073l.233-.029v-.044l.121-.029v-.051h.06v-.073h.146l.086.029v-.1l.121-.029v-.147h.06v-.051h.052v-.125h.06v-.1l.181-.022v-.051h.121v-.073h.052V15.38l.121-.022v-.051L70,15.285v-.073h.06v-.081h.06V15.08h.052v-.044h.121v-.029h.026v.029l.181.044v.051l.233.051v.051h.061v.051h.121v.051h.06v.1l.121.029v.271h-.06v.051h-.06v.051h-.121v.051h-.086l-.086-.022v.022h-.121v.051l-.121.022v.124h-.06v.2h-.06v.1h-.052v.081h-.034v-.1h-.06V16.31h-.052l-.095.029v.022l-.526.051v.073h-.06v.176h-.035v-.146h-.06v-.051H69.26v.073l-.121.022v.1h-.233v.278h-.026v-.073h-.146v.044Zm2.835-2.564v-.044h.207l.172.022.121-.022v.044h.06l.233-.044.181.022.112-.022v.044h.061l.121-.022.172.022.121-.022.448.022v-.044H73.3v-.132l.121-.022v-.051h.06v-.073h.06v-.051h.06v-.073l.465-.051v-.124l-.112-.029v-.124H73.9V13.6h-.06v-.051h-.06v-.044h-.06v-.051h-.06V13.4l-.112-.022V13.2h-.1v-.029h.035v-.125l-.121-.022v-.176H73.3v-.176H73.25v-.051h-.06v-.051h-.06v-.051h-.06V12.3h-.06v-.051h-.06V12.07h-.06V12h-.052v-.1h-.06V11.85H72.63v.044l-.155.029-.293-.029v-.022l-.147-.022v.044h-.06v.081l-.319.051V12h-.095v.051h-.112v.227h-.06v.1h-.06V12.5h-.06v.073h-.121v.051l-.112.022V12.7h-.06v.124h-.06v.124h-.06v.1h-.06V13.1l-.112.022v.051h-.06v.1l.414.022.112-.022v.051h.095v-.051H71.5l.121.022.121-.022v.051h.086v-.051l.534-.029V13.2l.112-.029v-.2l.121-.029v-.073l.207-.022.121.022v.073h.121v.081l.112.022V13.1h.06v.073h.06v.505h-.147l-.207-.029v.029h-.086L72.63,13.6v.051l-.8.029v-.029h-.172V13.63h-.207v.022h-.034V13.6h-.086v.081h-.06v.1h-.026v-.124h-.121V13.63h-.181l-.052.022-.06-.022V13.6h-.121l-.267.029v.051h-.06v.073h-.06v.073h-.086v-.073h-.06v-.1h-.052l-.207.051v.1h-.06v.073h-.06v.073h-.121V14h-.121v.051H69.5v.073h-.06v.227l.586.051.181-.022v.044h.112l.3-.044Zm3.421,2.534-.353-.022v-.073h-.06v-.051h-.06v-.125l-.121-.029v-.124h-.052v-.1h-.06v-.051l-.121-.022v-.073h-.06v-.073h-.06v-.051h-.06v-.051H73.6v-.1h-.06v-.051h-.06V15.71h-.121v-.022H73.25v-.029H73.1v-.051l-.147-.022v-.051h-.06v-.051h-.052v-.146l.207-.029v.051l.465.073.181-.022.121.022.353-.022.06.022v.081l.112.022v.051h.353v.073l.121.029v.044h.06v.081h.06v.176l.173.022v.029h.06v.249h.061v.3h-.061v.249h-.026v-.022l-.147-.029v.081h-.06v.073h-.095l-.086-.029v.051Z" transform="translate(-52.306 -7.918)" fill="#fff"/>
    <path id="パス_4" data-name="パス 4" d="M110.636,17.865v-.051l-.241-.029v-.073h-.06V17.66h-.112v-.051h-.06v-.1H110.1v-.051l-.233-.029v-.044l-.241-.029v-.051l-.233-.051v-.044h-.06v-.051h-.147v.022h-.034v-.051l-.112-.022v-.073l-.121-.029v-.124l-.172-.051v-.125h-.181v-.022l-.5-.051v.051l-.181.022v.051h-.147v-.051h-.147v.176l-.327.022v-.1h-.086v.073l-.121.022v.051h-.086l-.086-.022v.051l-.413.073v.051l-.414.051v.051H106v.044h-.293v.051h-.06v.051a3.526,3.526,0,0,1-.413.077,3.6,3.6,0,0,1-.44.026l-.06-.029V17.36h-.06v-.1h-.06v-.044l-.121-.029v-.125h-.06v-.1l-.173-.051v-.3h.06v-.073l.207-.022.147.022v-.1h.086v.081h.06v.044h.06v.132h.44v-.081h.06v-.22h.06v-.051h.06v-.08h-.06v-.124h-.06v-.051h0v-.249h-.06v-.147h.06v-.176h-.026v-.029h.026V15.4h-.06V15.25h.06v-.176h-.06V15.03h.035v-.051h-.035v-.2h.06V14.65h-.06v-.176h-.061V14.4h-.051V12.723h-.06v-.051h.06V12.5h-.06v-.124h.06v-.505h.051v-.022h.035v.044h.061l.293-.022v.051h.121v.022l.172.029v.051H106v.044h.06v.051h.06V12.2l.173.022v.022h.06v.051h.147v-.073l.293-.051v-.051h.06v-.147h.06v-.154h.034v-.051h-.034V11.72h-.06v-.132h-.06v-.549h.06v-.073h.181v-.029h.026v.051h.06l.086-.022v-.051h.06v-.029h.034v.029h.353v.022l.293.029v.051h.06v.176l.121.022v.1h.052v.176h-.052v.051h-.06v.073h-.06v.073h-.06v.579h.8v-.051h.052v-.073h0V12.02h.061v-.1l.327-.051.233.022v.029h.06v.051l.181.022v.029h.06v.044l.233.051v.051l.121.029v.073h.052v.051h.06v.373h-.06v.154h-.052v.044h-.06v.132h-.06v.828h.06v.1h-.06v.278h.06V14.3l.353.124V14.5h.061v.051h.06v.073h.233V14.7l.121.022v.051h.061v.051h.112v.051h.06v.154h.06v.176h-.06v.044h-.06V15.3l-.353.081v.073l-.413.051v.044h-.061V15.6h-.026V15.58h-.181l-.112.022v-.051h-.095v.1h-.052v.1h-.181v.051h-.06v.051h-.06v.1h-.147l-.086-.022v.146h.06v.051h.06v.051h.052v.073h.06V16.3l.121.029v.051h.06v.044h.06l.172-.022.121.022v.051l.328.051v-.051h.086l.121.051v.051h.052v.051h.061l.3-.029.233.029v.051h.06v.044l.379.051V16.73h.095v.051h.258v-.1h.034v.1h.06v.1h.06v.278h-.06v.073h.026v.022h-.026v.081l-.267.022v-.022H111.7l-.181.051-.172-.029-.207.029v.124h-.06v.044h-.12v.1H110.9v.051h-.061v.051l-.121.022v.051Zm-1.947-4.541v-.051l.112-.029V13.2h.061v-.505l-.172-.022v-.029l-.388-.051v.051h-.086l-.146-.051v.051h-.147v-.051h-.095v.081h-.086v-.029h-.06l-.112.029v-.051h-.06l-.181.022v-.051h-.267v.051h-.147v-.051h-.06v-.044l-.293-.051-.147.022v.051l-.181.022v.1h-.052v.051h-.06V12.8h-.06v.249l.233.022v.081l.267.022V13.1h.086v.051h.121v.073h.086v-.073h.095v.022H107v.051h.095V13.2h.112v-.051l.155-.029.207.051v-.051h.086v.051l.233.029.121-.029.414.051v.051Zm.06,1v-.051h.052v-.1h.061V13.6h-.086v.029h-.086l-.621-.051v.051h-.328V13.6h-.147v.051h-.086l-.388-.1V13.6l-.207.029-.646-.051-.086.022v.476h.052l.181-.022v.1h.06l.086-.029V14.1h.086v.051h.095v-.029h.026v.051h.086V14.1h.095v.051h.233l.293-.029.474.1v.051h.06v.051l.414.022Zm-1.835,2.058v-.051l.353-.029v-.1h.06V16.18l.241-.051v-.051h.052V16h.095v.051h.052l.095-.022v-.1h-.06v-.154h-.06V15.6h-.06v-.147l-.112-.029v-.044h-.121v-.051h-.06V15.25h-.06v-.044h-.06v-.4h-.06v-.1h-.146v.051h-.086a1.08,1.08,0,0,0-.353-.051h-.388v.073h-.052v.608h.026V15.4h-.026v.7h.052v.073h.061v.051h.06v.051h.06v.051l.233.022v.029Zm1.887-.754v-.1h.061v-.051h.06V15.4h0v-.073h.06V15.28h.06v-.051h.06v-.051h.353v-.051l.112-.022v-.3l-.414-.1-.233.022-.146-.022v.051h-.086V14.7h-.06l-.181.051-.06-.029V14.7H108.3v.051h-.147v-.029h-.06l-.267.029V14.8h-.06v.124h.06v.051l.121.022v.073h.06v.051h-.06v.1h.06v.1h.06v.051l.172.044v.051l.181.029v.073h.06v.051l.233.022Z" transform="translate(-80.001 -8.352)" fill="#fff"/>
    <path id="パス_5" data-name="パス 5" d="M74.892,68.973V68.9h-.215v-.063H74.57V68.33h-.107v-.074h-.092V67.93h.092v-.105h-.092v-.19h.368v.147h.092V68h2.313l1.21-.074v-.863h.107v-.074l.306-.042V65.509h.107V64.393l-.261-.031v.031h-.046V64.32h-.429l-.2.042V64.32h-.368v.074h-.061v-.031h-.52V64.32l-.261-.032v.074h-.061V64.32h-.107v-.063l-.307-.074V64h-.107v-.116h-.107V63.5l1.425-.074.153.032v-.032h.261l.214.032v.074l.628.031.153-.031v-.074l.214-.032V63.13H79.2v-.358h.2v-.105H79.5v-.074h.107l.137-1.295h-.464v-.042h-.191L79,61.3l-.232-.042v.074l-.273.042v.063l-.287.042v.031h-.04v-.074h-.1V61.33l-.56-.032-.328.032v.148h-.1v.074H77.03v-.042h-.082l-.56.074v-.074l-.191-.031V61.3h-.286v-.116h-.1v-.211h.055V60.9h-.055v-.105h.1v-.105l.805-.074.178.032.751-.074.191.042.273-.042.191.042v.074h.1v.137L79.8,60.9l.464-.074.178.042.751-.074,1.734.074v-.074h.1v-.221l.369-.032v-.1h.1v-.074h.287v-.147l.328-.074.369.042.286-.042.273.074v.147l.191.032V60.5h.191v.073h.082v.074h.191v.147l.191.032v.326h0v.284h-.1v.074h-.1v.116l-.191.032v.105h-.137v-.074h-.232v.042h-.232v-.105h-.1V61.4h-.137v.032l-.614.042v-.105h-.1l-.136.032v.032h-.041V61.4h-.191l-.465.074V61.4h-.1l-.382.105-.178-.031-.191.031V61.4h-.327v.074H81.9v-.042h-.15v.116h-.082v.137h-.1v.074h-.1v.073h-.1l.063.221-.214.031v.148h-.107v.179l-.2.031v.179H80.82v.116h.107v.074H80.82v.432h.107V63.6l.567.074V63.6H81.6V63.53h.95v-.074l.368-.074v.074h.26v-.074l.889-.032.429.032V63.5l.2.032V63.6H84.8v.074h.107v.074l.214.031v.074h.107V64h.092v.21h-.092v.148h-.107v.074h-.107v.074h-.107v.105l-.215.031v.116l-.2.032V65h.092v.221H84.5V65.8H84.39v.074h-.107v.21l-.214.042v.684h-.107V67.1h-.092v.295h.046v.063h.046V67.6h-.092v.105h.092v.252h.107v.074h.214L84.864,68V67.93l.2-.042v-.179h.107v-.074h.107V67.53l.215-.031v-.074H85.6v-.074h.368l.827.148v.074H86.9v.179l.214.031v.105h.107V68h.107v.863h-.107v.105h-.169V68.9H86.9v.042h-.153l-.322-.042v-.063l-.261-.042v.042h-.153v-.074H85.86v.074l-.261.031-.643-.031-.092.031-.107-.031v-.042h-.321l-.935.074-.276-.031V68.9h-.674l-.261-.032V68.9h-.153l-.429-.063-.307.031-.321-.031-.414.063-.429-.063-.154.031V68.9h-.046v-.032l-.275-.031V68.9H79.2l-.169-.032v.074h-.046V68.9l-.26-.032V68.9h-.26l-.368-.032v.074h-.061v-.074h-.367v.074h-.046V68.9l-.322-.032-.46.032v.074h-.168V68.9h-.107l-.2.042L76.1,68.9v.042h-.061V68.9h-.2l-.536.042-.367-.042v.074Zm7.552-1.084v-.179h.107V67.6h-.107V67.53h.046v-.074h-.046V65.478h.107V65h.107V64.72h-.107v-.074h.107v-.105h-.107V64.32l-.368-.032v.074h-.261l-.214-.042v-.063H81.6a.878.878,0,0,1-.337.063h-.337v.116l-.536.074v1.579H80.3v.505h-.061v.074H80.3v.074h-.107v.253h-.107v.863a4.716,4.716,0,0,0,1.072.09q.551-.016,1.134-.016Z" transform="translate(-57.067 -46.148)" fill="#b10017"/>
    <path id="パス_6" data-name="パス 6" d="M80.121,109.114v-.105h-.107v-.832h.107V108h.107v-.189h-.107v-.284h-.046v-.031h.046v-.147h-.414l-.168.032v.116l-.2.031v.221h-.107v.1h-.107v.105a3.638,3.638,0,0,1-.421.058,1.681,1.681,0,0,0-.421.09v.074l-.2.032v.074h-.107v.105h-.107v.074h-.107v.074l-.368.032-.414-.032-1,.105v.074l-.215.042v.137h-.107v.074h-.107v.105l-.674.116-.215-.074v-.074l-.215-.032v-.074h-.107v-.326h-.092v-.179h.092v-2.779h.107v-.074l.215-.031V105.4h.107v-.105h-.107v-.474h.107v-.105h-.107v-.726H74.3v.074h-.107v.074h-.107v.147h-.107v.148h-.092v.137h-.107v.295h-.107V105h-.107v.221h-.107v.105l-.215.042v.063h-.2v.074h-.368v-.074l-.215-.032v-.968h.107v-.074l.215-.042v-.074h.092V104.1h.107v-.147h.107v-.074l.215-.032v-.074h.107v-.253h.107v-.147h.092v-.432h.107v-.074h.107v-.105h.107v-.105h.107v-.116h.107v-.105h.107v-.179h.092v-.432h.107v-.179h0V101.5l.215-.032v-.147h.046v-.074h-.046v-.105h.107v-.284h.107v-.074h.092v-.074h.107v-.295h.107v-.389h0v-.253H75.3V99.7H75.4v-.074l.582-.031.735.179v.074l.521.105v.074h.107v.611l-.215.031v.074h-.107v.074h-.107v.074h-.107v.147H76.72v.063h-.107v.074l-.322.074v.431h-.107v.074h-.107v.074h-.092v.284h-.107v.189h.107v.105h-.107v.105h.107v.537h-.107v.116h.107v.284h-.107v.1h.107v.874h-.061v.063h.061v.442h-.061V105h.061v1.811h-.061v.063h.061V108h.092v.063h.8V108h.107v-.074h.2v-.147h.107V107.6h-.107v-.074h-.107v-.147H76.98v-2.232h-.107V105h.107v-.432h-.107v-.074h.107v-.284h-.107v-.4h.107v-1.474h-.061V102.3h.061v-.579l.567-.042.107.042v.074h.107v.211h.107v.074h.889v-.074h.107v-.463H78.8V101.5h.061v-.611h.107v-.074h.107v-.284h-.107v-.116h.107v-.179h-.107V100.1h.107v-.474l1-.031.2.031V99.7l.536.032v.147H80.9v.832h.107v.105l.735.042.536-.042.2.042.888-.116v-.358h.107v-.179l.9-.042.092.042v.074l.215.031v.074h.107v.147H84.9v.105h.107v.074h.2v.074h.107v.074h.107v.105h.107v.074h-.107v.105h-.107v.074l-.521.105v.074h-.107v.105l-.521.105v.147h-.107v.074h-.322v.074h-.092v.431h-.107v.074H83v.137h-.092v.147H82.8v.148h.107v.147l.306.032v.074h.107v.147l1.149.032v.074l1.364.074v.074l.536.137v.148h-.107v.105h-.107v.074h-.107v.105h-.107v.074h-.107v.074h-.092v.221h-.107v.063a3.475,3.475,0,0,0-.4.021c-.122.014-.235.031-.337.053v.074h-.107v.147h-.107v.148h.107v.316h0v.431l-.628.116v.031h-.153L83.9,105.8v-.074h-.169v.074h-.092v.105l-1.164.074v.179l.2.02v.147l.2.032v.074l.536.074v.074h.107v.179h.092v.074a3.138,3.138,0,0,1,.613.121c.194.06.17.114.343.163v.074l.8.105v.074h.107v.074h.107v.105h.107v.074H85.8v.221h0v.105l-.521.147v.137h-.107v.147H85V108.3h-.23v.074l-.726.074v.105h-.107v-.074h-.046v-.074l-.322-.031-.215.031v-.063H83.25v-.221h-.092v-.105l-.429-.074v-.074h-.107V107.8h-.107v-.074h-.092v-.481h-.107v-.089l-.2.012-.153.032v1.442h-.107v.147l-.414.032v.074h-.107v.116h-.107v.063l-1.042.221Zm-1.363-1.874v-.074h.107v-.505h.107v-.074h.107v-.148h0v-.253h.092v-.063h.107v-.295h-.107v-.105l-.628-.042-.261.074v.074h-.107v.579h.061v.031h-.061v.148h-.092v.074h-.107v.148h-.107v.431l.628.032Zm.215-3.031V104.1h.107v-.147h.092v-.074l.322-.074v-.074H79.6v-.063h.107v-.116l.414-.1v-.074h.107V103.3h.107v-.137h.107v-.148h-.107v-.105h-.107v-.221h-.107v-.074h-.107v-.179h-.107v-.105h-.092v-.074H79.6v-.074h-.107l-.153.042v.105h-.107v.074h-.107v.074h-.107v.063l-.215.042v.074l-.2.032v.105H78.5v.074l-.215.042v.179h-.107v.358h.107v.179h-.107v.547h.107v.105h.429Zm1.149,1.01v-.105h.107v-.179l.215-.042v-.21h-.107v-.074h-.107v-.148l-.582-.031v.063a3.833,3.833,0,0,0-.7.148q-.337.105-.659.179v.4l1.363.074Zm1.47-2.99v-1.084l-.413-.042v-.063h-.215l-.322.063-.153-.032v.074h-.107v.758l.429.105v.074H80.9v.105h.107v.074l.322.042Zm1.042,3.021v-.074l.322-.063v-.148l.413-.074v-.074h.107v-.358h-.107v-.147l-.413-.032-.107.032-.735-.032v-.105H82V104.1h-.092v-.116h-.107v-.063H81.7v-.147h-.107V103.7h-.368v.221h.107v.063h.107v.116h.107v.105h.092v.105h.107v.074h.107v.147h.107v.579h.107v.105Z" transform="translate(-55.602 -76.425)" fill="#b10017"/>
    <path id="パス_7" data-name="パス 7" d="M55.3,84.586a1.052,1.052,0,0,0-.717-1.272c-1.272-.437-3.257-.473-3.374-.134s1.472,1.532,2.744,1.968a1.052,1.052,0,0,0,1.347-.563" transform="translate(-39.287 -63.652)" fill="#b10017"/>
    <path id="パス_8" data-name="パス 8" d="M136.4,84.231a1.052,1.052,0,0,0,1.352.552c1.268-.448,2.847-1.652,2.727-1.991s-2.1-.286-3.373.161a1.052,1.052,0,0,0-.706,1.278" transform="translate(-104.627 -63.36)" fill="#b10017"/>
    <path id="パス_9" data-name="パス 9" d="M99.086,49.176a.941.941,0,0,0,.984-.87c.017-1.091-.569-2.634-.929-2.64s-.994,1.518-1.011,2.609a.941.941,0,0,0,.956.9" transform="translate(-75.298 -35.041)" fill="#b10017"/>
    <path id="パス_10" data-name="パス 10" d="M71.314,137.019c-.434-.377-.934-.4-1.128-.181-.487.56-.71,1.748-.438,1.984s1.416-.151,1.9-.712c.194-.223.1-.714-.337-1.091" transform="translate(-53.43 -104.892)" fill="#b10017"/>
    <path id="パス_11" data-name="パス 11" d="M127.55,137.007c-.439.37-.544.86-.354,1.086.478.568,1.618.972,1.892.741s.07-1.423-.408-1.991c-.19-.226-.69-.206-1.13.164" transform="translate(-97.533 -104.891)" fill="#b10017"/>
    <path id="パス_12" data-name="パス 12" d="M43.621,30.336a11.2,11.2,0,0,0,.3-2.929c-.083-.678,0-2.2-.016-2.35s-.193-.157-.537.019a14.406,14.406,0,0,0-2.679,1.606,9.594,9.594,0,0,0-2.206,2.171,6.048,6.048,0,0,0-.653,2.79c-.029,1.1.549,1.781.726,2.668.058.291.1.514.178,1.016s.408.354.614.217.5-.46,1.721-1.4a8.316,8.316,0,0,0,2.553-3.813m-.746-1.2a17.22,17.22,0,0,1-1.648,1.488c-.368.245-.776.5-.9.6a2.147,2.147,0,0,0-.423.71,12.857,12.857,0,0,0-.425,2.093,6.523,6.523,0,0,1-.056.688c-.027.178.034.36-.124.359s-.338,0-.26-.372a15.217,15.217,0,0,0,.183-1.564,7.247,7.247,0,0,0-.205-1.294,6.812,6.812,0,0,1-.077-1.871c.124-.815.281-1.27.332-1.061s-.132.686-.092,1.488a5.678,5.678,0,0,0,.3,1.631,13.614,13.614,0,0,0,.977-2.31c.123-.406.231-1.228.339-1.64s.586-1.383.493-.964-.416,1.4-.4,1.567.019.354.019.354.94-1.538,1.29-2.089.793-1.063.966-1.308.26-.241.045.176-.774,1.212-.921,1.483-.274.534-.274.534.778-.409,1.05-.582.547-.251.332-.039a14.292,14.292,0,0,1-1.247.943,2.775,2.775,0,0,0-.623.471,10.911,10.911,0,0,0-.83,1.426c-.1.276-.226.4-.188.49s.219.183,1.022-.5,1.107-1,1.384-1.186.285-.058-.044.281" transform="translate(-29.025 -19.141)" fill="#fff"/>
    <path id="パス_13" data-name="パス 13" d="M30.765,144.052a19.578,19.578,0,0,0-4.176-1.03c-.961-.047-3.129-.5-3.34-.506s-.215.208.047.68a23,23,0,0,0,2.385,3.73c.931,1,1.881,2.475,3.171,3.261a11,11,0,0,0,3.992,1.447c1.572.285,2.511-.291,3.765-.316.412-.008.727-.017,1.437,0,.325.009.454-.081.48-.209-1.259-.34-3.144-.774-3.613-.9a11.122,11.122,0,0,0-1.832-.031,11.12,11.12,0,0,1-2.657-.323c-1.163-.338-1.816-.638-1.521-.656s.98.319,2.12.449a8.513,8.513,0,0,0,2.308-.013,25.5,25.5,0,0,0-3.32-1.747c-.582-.246-1.754-.566-2.345-.794s-1.989-1.047-1.39-.837,2.012.838,2.244.857.5.055.5.055S26.8,145.641,26,145.078s-1.542-1.236-1.9-1.509-.352-.381.248-.017,1.753,1.245,2.144,1.491.77.464.77.464-.611-1.071-.867-1.452-.377-.744-.068-.426,1.217,1.525,1.388,1.779a4.68,4.68,0,0,0,.694.889,20.553,20.553,0,0,0,2.058,1.364c.4.182.572.373.7.346s.252-.235-.748-1.4-1.463-1.616-1.739-2.007-.093-.372.4.118a30.261,30.261,0,0,1,2.178,2.406c.362.517.746,1.089.882,1.262a4.016,4.016,0,0,0,1.025.691,23.387,23.387,0,0,0,2.992,1c.534.117,1.451.344,2.172.527l-.01-.015c-.2-.29-.673-.726-2.049-2.478a15.47,15.47,0,0,0-5.517-4.067" transform="translate(-17.721 -109.357)" fill="#fff"/>
    <path id="パス_14" data-name="パス 14" d="M8.66,59.875c.322.061.862.165,1.46.3a7.9,7.9,0,0,1-.456-2.2c-.036-1.1.049-1.752.157-1.5s0,.939.225,1.967a8.639,8.639,0,0,0,.638,1.865l.15.039a32.411,32.411,0,0,0,.579-3.242c.055-.572,0-1.678.034-2.253s.386-2.007.37-1.429-.179,1.974-.126,2.181.1.453.1.453.772-2.336,1.064-3.176.7-1.665.855-2.045.255-.406.093.212-.648,1.852-.762,2.257-.205.792-.205.792.833-.809,1.118-1.131.593-.521.386-.169-1.08,1.456-1.27,1.671a4.129,4.129,0,0,0-.635.835,17.065,17.065,0,0,0-.667,2.15c-.052.393-.179.6-.113.7s.3.16,1.1-1.013,1.091-1.694,1.379-2.036.326-.177.01.381a26.211,26.211,0,0,1-1.624,2.523c-.382.449-.809.932-.932,1.1a3.344,3.344,0,0,0-.343,1.074c-.007.056-.016.152-.024.275a7.876,7.876,0,0,1,1.314.483c.295.15.636.293,1,.444l.3.126a12.965,12.965,0,0,0,1.468-4.731A16.3,16.3,0,0,0,15,52.868c-.251-.852-.491-2.862-.547-3.049s-.265-.135-.634.216a20.8,20.8,0,0,0-2.824,3.044c-.666,1.071-1.782,2.281-2.134,3.61a8.632,8.632,0,0,0-.233,3.179l.032.006" transform="translate(-6.581 -38.146)" fill="#fff"/>
    <path id="パス_15" data-name="パス 15" d="M10.993,105.451c1.864.724,2.334,1.018,2.642,1.115s.784.166.729-.458-.061-.906-.073-1.273c-.035-1.12.51-2.115.142-3.427a7.01,7.01,0,0,0-1.678-3.13c-.869-.921-2.429-1.345-3.5-1.888a19.6,19.6,0,0,0-3.942-1.058c-.5-.1-.72-.034-.7.151S5.2,97.462,5.3,98.3a12.844,12.844,0,0,0,1.259,3.41,10.233,10.233,0,0,0,4.439,3.74M7.02,99.717c.414.134.9.416,2.143.973s1.449.393,1.47.268-.183-.227-.389-.526a13.253,13.253,0,0,0-1.5-1.439A3.694,3.694,0,0,0,7.8,98.63,18.961,18.961,0,0,1,5.906,97.9c-.341-.184.037-.18.44-.061s1.532.358,1.532.358-.242-.274-.513-.551S6.133,96.6,5.731,96.171s-.291-.462.006-.225,1.023.708,1.64,1.254,2.292,2.084,2.292,2.084-.051-.23-.081-.429S8.843,97.58,8.6,97.108s.664.536.926.995.647,1.407.928,1.854a16.141,16.141,0,0,0,1.953,2.449,6.556,6.556,0,0,0-.1-2.05c-.188-.973-.567-1.485-.563-1.752s.343.227.747,1.163a7.794,7.794,0,0,1,.46,2.264c.1.572-.077,1.134.121,1.615a17.479,17.479,0,0,0,.7,1.814c.213.427-.02.477-.225.53s-.181-.184-.268-.389a7.431,7.431,0,0,1-.278-.805,14.87,14.87,0,0,0-1.174-2.368,2.614,2.614,0,0,0-.759-.713c-.184-.072-.789-.251-1.337-.425a22.484,22.484,0,0,1-2.574-1.25c-.527-.3-.555-.456-.141-.322" transform="translate(-3.54 -73.116)" fill="#fff"/>
    <path id="パス_16" data-name="パス 16" d="M142.588,34.149c1.226.935,1.515,1.259,1.721,1.4s.541.285.614-.217.12-.725.178-1.016c.178-.887.756-1.563.726-2.668a6.045,6.045,0,0,0-.653-2.79,9.593,9.593,0,0,0-2.205-2.171,14.421,14.421,0,0,0-2.678-1.606c-.344-.176-.518-.168-.537-.019s.067,1.671-.016,2.35a11.215,11.215,0,0,0,.3,2.929,8.316,8.316,0,0,0,2.553,3.813m-1.852-5.29c.277.187.581.5,1.384,1.186s.984.593,1.022.5-.092-.214-.188-.49a10.913,10.913,0,0,0-.83-1.426,2.782,2.782,0,0,0-.623-.471,14.324,14.324,0,0,1-1.246-.943c-.215-.212.06-.134.332.039s1.05.582,1.05.582-.127-.263-.274-.534-.706-1.067-.921-1.483-.128-.42.045-.176.616.757.966,1.308,1.29,2.089,1.29,2.089,0-.191.019-.354-.31-1.148-.4-1.567.386.552.494.964.215,1.234.339,1.64a13.555,13.555,0,0,0,.978,2.31,5.7,5.7,0,0,0,.3-1.631c.04-.8-.143-1.279-.092-1.488s.209.246.332,1.061a6.8,6.8,0,0,1-.076,1.871,7.249,7.249,0,0,0-.206,1.294,15.277,15.277,0,0,0,.183,1.564c.078.377-.1.371-.26.372s-.1-.181-.124-.359a6.44,6.44,0,0,1-.056-.688,12.878,12.878,0,0,0-.425-2.093,2.135,2.135,0,0,0-.423-.71c-.121-.093-.529-.352-.9-.6a17.281,17.281,0,0,1-1.648-1.488c-.329-.339-.321-.468-.044-.281" transform="translate(-107.21 -19.141)" fill="#fff"/>
    <path id="パス_17" data-name="パス 17" d="M122.157,144.052a19.578,19.578,0,0,1,4.176-1.03c.961-.047,3.129-.5,3.341-.506s.215.208-.047.68a23,23,0,0,1-2.385,3.73c-.931,1-1.881,2.475-3.171,3.261a11,11,0,0,1-3.992,1.447c-1.572.285-2.511-.291-3.765-.316-.412-.008-.727-.017-1.437,0-.325.009-.454-.081-.48-.209,1.259-.34,3.144-.774,3.613-.9a11.121,11.121,0,0,1,1.832-.031,11.12,11.12,0,0,0,2.657-.323c1.163-.338,1.816-.638,1.521-.656s-.98.319-2.12.449a8.513,8.513,0,0,1-2.308-.013,25.5,25.5,0,0,1,3.32-1.747c.582-.246,1.754-.566,2.345-.794s1.989-1.047,1.39-.837-2.012.838-2.244.857-.5.055-.5.055,2.223-1.527,3.019-2.091,1.542-1.236,1.9-1.509.352-.381-.248-.017-1.753,1.245-2.144,1.491-.77.464-.77.464.61-1.071.867-1.452.377-.744.068-.426-1.217,1.525-1.388,1.779a4.679,4.679,0,0,1-.694.889,20.548,20.548,0,0,1-2.058,1.364c-.4.182-.572.373-.7.346s-.252-.235.748-1.4,1.463-1.616,1.739-2.007.093-.372-.4.118a30.262,30.262,0,0,0-2.178,2.406c-.362.517-.746,1.089-.882,1.262a4.016,4.016,0,0,1-1.025.691,23.388,23.388,0,0,1-2.992,1c-.534.117-1.451.344-2.172.527l.01-.015c.2-.29.673-.726,2.049-2.478a15.47,15.47,0,0,1,5.517-4.067" transform="translate(-87.78 -109.357)" fill="#fff"/>
    <path id="パス_18" data-name="パス 18" d="M172.945,59.875c-.322.061-.862.165-1.46.3a7.9,7.9,0,0,0,.456-2.2c.036-1.1-.049-1.752-.157-1.5s0,.939-.226,1.967a8.64,8.64,0,0,1-.638,1.865l-.15.039a32.341,32.341,0,0,1-.58-3.242c-.055-.572,0-1.678-.034-2.253s-.386-2.007-.37-1.429.179,1.974.126,2.181-.1.453-.1.453-.772-2.336-1.064-3.176-.7-1.665-.855-2.045-.255-.406-.093.212.648,1.852.762,2.257.205.792.205.792-.833-.809-1.118-1.131-.594-.521-.386-.169,1.08,1.456,1.27,1.671a4.121,4.121,0,0,1,.635.835,17.025,17.025,0,0,1,.667,2.15c.052.393.179.6.113.7s-.3.16-1.1-1.013-1.091-1.694-1.379-2.036-.326-.177-.01.381a26.208,26.208,0,0,0,1.624,2.523c.382.449.809.932.932,1.1a3.333,3.333,0,0,1,.343,1.074c.007.056.016.152.024.275a7.876,7.876,0,0,0-1.314.483c-.295.15-.636.293-1,.444l-.3.126a12.965,12.965,0,0,1-1.468-4.731,16.3,16.3,0,0,1,.305-3.913c.251-.852.491-2.862.547-3.049s.265-.135.634.216a20.8,20.8,0,0,1,2.824,3.044c.666,1.071,1.782,2.281,2.134,3.61a8.632,8.632,0,0,1,.233,3.179l-.032.006" transform="translate(-127.603 -38.146)" fill="#fff"/>
    <path id="パス_19" data-name="パス 19" d="M164.45,101.712a12.854,12.854,0,0,0,1.259-3.41c.1-.839.66-2.633.68-2.818s-.2-.25-.7-.151a19.611,19.611,0,0,0-3.942,1.058c-1.07.543-2.631.967-3.5,1.888a7.01,7.01,0,0,0-1.678,3.129c-.368,1.313.178,2.308.142,3.427-.012.367-.019.649-.073,1.273s.422.555.729.458.778-.391,2.642-1.115a10.233,10.233,0,0,0,4.439-3.74m-.607-1.672a22.474,22.474,0,0,1-2.574,1.25c-.549.174-1.154.353-1.337.425a2.613,2.613,0,0,0-.758.713A14.879,14.879,0,0,0,158,104.8a7.359,7.359,0,0,1-.278.805c-.087.2-.063.442-.268.389s-.438-.1-.225-.53a17.537,17.537,0,0,0,.7-1.814c.2-.482.022-1.044.121-1.615a7.789,7.789,0,0,1,.46-2.264c.4-.936.743-1.429.747-1.163s-.375.779-.563,1.752a6.559,6.559,0,0,0-.1,2.05,16.14,16.14,0,0,0,1.953-2.449c.281-.446.665-1.395.928-1.854s1.17-1.466.926-1-.957,1.547-.988,1.746-.081.429-.081.429,1.675-1.538,2.291-2.084,1.343-1.017,1.64-1.254.408-.2.006.225-1.362,1.2-1.633,1.478-.513.551-.513.551,1.128-.238,1.532-.357.781-.124.44.06a18.957,18.957,0,0,1-1.893.727,3.693,3.693,0,0,0-.946.363,13.312,13.312,0,0,0-1.5,1.439c-.206.3-.41.4-.389.526s.229.29,1.47-.268,1.729-.839,2.143-.973.386.023-.141.322" transform="translate(-120.043 -73.117)" fill="#fff"/>
    <path id="パス_20" data-name="パス 20" d="M96.312,165.563a2.4,2.4,0,1,1-2.4-2.4,2.4,2.4,0,0,1,2.4,2.4" transform="translate(-70.216 -125.198)" fill="#fff"/>
  </g>
</svg>
